<?xml version="1.0" standalone="no"?>
<!DOCTYPE svg PUBLIC "-//W3C//DTD SVG 20010904//EN"
 "http://www.w3.org/TR/2001/REC-SVG-20010904/DTD/svg10.dtd">
<svg version="1.0" xmlns="http://www.w3.org/2000/svg"
 width="512.000000pt" height="512.000000pt" viewBox="0 0 512.000000 512.000000"
 preserveAspectRatio="xMidYMid meet">

<g transform="translate(0.000000,512.000000) scale(0.100000,-0.100000)"
fill="#000000" stroke="none">
<path d="M1 4133 c1 -888 2 -982 15 -933 9 30 26 90 40 133 l24 79 1 731 c1
403 3 747 6 764 l5 33 727 2 726 3 95 39 c99 40 282 97 385 121 52 11 -84 13
-982 14 l-1043 1 1 -987z"/>
<path d="M3055 5109 c111 -25 264 -74 366 -116 l114 -48 715 -5 715 -5 2 -702
1 -702 30 -93 c44 -136 61 -198 92 -343 l28 -130 1 1078 1 1077 -1052 -1
c-657 -1 -1038 -4 -1013 -10z"/>
<path d="M2400 5033 c-355 -26 -849 -199 -1174 -410 -277 -180 -546 -454 -708
-723 -361 -599 -480 -1242 -342 -1845 32 -140 104 -360 161 -494 117 -275 234
-464 401 -649 l74 -83 -11 -77 c-6 -42 -18 -151 -26 -242 -9 -91 -18 -180 -22
-197 l-5 -33 -283 0 c-156 0 -290 -3 -299 -6 -15 -6 -16 53 -16 617 0 575 -7
737 -23 597 -4 -29 -7 -322 -7 -651 l0 -598 310 3 310 3 0 -22 0 -23 -331 0
-331 0 2 733 3 732 -41 130 -41 130 0 -962 -1 -963 374 0 375 0 10 53 c20 96
51 339 58 441 l6 101 35 -33 35 -34 -6 -176 c-6 -161 -19 -288 -33 -334 -4
-14 0 -18 19 -18 23 0 25 5 36 88 6 48 17 165 23 260 8 114 16 171 23 168 6
-2 45 -11 88 -21 l77 -17 -1 -167 c0 -91 -4 -199 -8 -238 -6 -65 -5 -73 10
-73 10 0 20 8 23 18 6 18 26 334 26 410 l0 43 53 -3 52 -3 6 -60 c4 -33 15
-138 25 -232 16 -158 19 -173 36 -173 18 0 19 6 14 63 -3 34 -10 120 -16 192
-6 72 -13 147 -15 168 l-5 37 45 0 c28 0 45 -4 45 -12 0 -7 21 -55 47 -108
l46 -95 -41 -120 c-22 -66 -40 -121 -38 -122 1 -2 520 -2 1153 -1 l1150 3 -53
145 -53 145 34 71 c19 39 35 76 35 82 0 7 16 12 40 12 l40 0 -7 -230 c-6 -227
-6 -230 14 -230 20 0 21 7 27 183 4 100 9 203 12 230 6 51 5 50 95 62 l47 6 7
-83 c7 -82 40 -331 50 -375 4 -15 13 -23 26 -23 17 0 20 4 15 22 -3 13 -15
104 -26 203 -11 99 -22 199 -24 222 l-5 41 50 12 c27 7 52 10 54 8 2 -2 16
-62 30 -133 20 -107 48 -216 92 -358 3 -10 15 -17 30 -17 20 0 22 3 14 18 -20
37 -64 211 -91 356 l-28 151 33 30 c18 17 40 44 49 60 11 22 15 25 16 11 0
-41 75 -320 123 -466 l52 -155 348 -3 347 -2 0 1040 c0 614 -4 1039 -9 1036
-5 -3 -17 -41 -26 -83 -17 -81 -87 -332 -106 -380 -7 -18 -10 -259 -9 -720 l1
-693 -285 0 c-293 0 -296 0 -296 38 0 4 119 6 265 4 l265 -3 -1 618 c-1 567
-2 615 -16 583 -14 -30 -15 -84 -10 -400 3 -201 3 -455 0 -565 l-6 -200 -253
3 -253 3 -10 37 c-5 20 -30 114 -55 207 -24 94 -49 200 -56 236 l-12 66 39 40
c108 111 259 308 328 428 296 514 402 1106 304 1685 -51 302 -181 651 -335
899 -84 135 -99 156 -194 272 -272 329 -663 596 -1090 744 -222 77 -431 123
-602 133 -107 7 -118 6 -118 -10 0 -30 -12 -48 -31 -48 -15 0 -19 7 -19 35 0
39 3 38 -130 28z m218 -89 c28 -19 47 -57 56 -109 12 -71 15 -75 49 -75 49 0
62 -13 36 -36 -12 -10 -32 -40 -45 -66 -20 -39 -22 -48 -9 -48 8 0 24 -6 36
-12 17 -11 22 -10 35 6 31 42 16 53 -40 31 -16 -7 -17 -6 -7 13 33 61 231 -25
361 -157 129 -130 186 -242 192 -379 2 -33 7 -58 11 -55 24 15 -30 258 -79
355 -14 27 -23 53 -20 56 13 13 68 -56 110 -138 89 -172 125 -331 89 -400 -10
-19 -31 -41 -47 -49 -25 -12 -33 -11 -62 3 -30 14 -34 21 -34 53 -1 185 -54
325 -163 434 -68 67 -135 111 -269 173 -139 65 -129 67 -178 -29 -50 -97 -46
-118 23 -135 83 -21 239 -101 289 -148 15 -14 30 -23 34 -20 19 19 -237 163
-312 175 -19 3 -34 10 -34 14 0 13 75 0 147 -26 99 -36 168 -83 278 -190 93
-91 102 -104 98 -129 -4 -20 -2 -27 6 -22 6 4 11 16 11 27 0 10 5 19 10 19 16
0 11 -26 -11 -54 -36 -46 -70 -37 -210 55 -216 143 -320 189 -422 189 -44 0
-72 -9 -158 -51 -112 -55 -259 -140 -324 -188 -22 -17 -53 -33 -69 -37 -25 -6
-28 -4 -23 10 4 10 1 19 -8 22 -8 4 -15 15 -15 25 0 10 -7 19 -15 19 -23 0
-18 -37 7 -54 12 -9 19 -18 16 -21 -8 -8 -58 35 -58 50 0 8 12 22 26 32 15 10
52 44 83 76 110 116 241 196 377 231 76 20 123 21 106 4 -7 -7 -12 -27 -12
-44 0 -59 73 -85 118 -44 26 24 28 59 7 100 -12 22 -23 29 -51 32 -32 3 -39 9
-66 58 -16 30 -36 62 -43 70 -6 8 -27 43 -45 78 -20 38 -48 74 -72 91 -37 27
-37 29 -16 35 13 3 42 6 65 6 40 0 44 -3 58 -37 16 -37 24 -66 44 -163 l9 -45
-5 55 c-6 65 -28 142 -54 187 -10 18 -14 35 -10 38 5 2 12 26 16 52 10 68 48
103 112 103 28 0 58 -7 71 -16z m-467 -145 c22 -104 22 -109 5 -109 -15 0 -32
61 -43 154 -5 38 -3 48 7 44 8 -2 21 -41 31 -89z m176 52 c13 -19 23 -37 23
-41 0 -7 -103 -30 -109 -24 -2 2 5 16 15 31 10 15 17 39 15 51 -4 35 28 25 56
-17z m663 22 c-1 -44 -38 -148 -54 -151 -9 -2 -16 2 -16 8 0 11 39 139 47 153
8 14 23 7 23 -10z m-175 -15 c4 -13 17 -31 29 -40 31 -26 7 -37 -53 -24 l-49
10 20 38 c23 43 43 49 53 16z m-920 -65 c10 -32 21 -62 25 -66 4 -5 31 3 61
17 29 15 56 23 59 19 4 -5 13 -30 20 -56 10 -37 10 -51 1 -60 -15 -15 -31 6
-31 40 0 32 -13 35 -60 17 -46 -18 -46 -22 -3 -107 22 -45 23 -67 3 -67 -14 0
-42 46 -60 100 l-16 47 -36 -14 -37 -15 30 -49 c29 -50 30 -69 4 -69 -15 0
-55 68 -55 94 0 12 -7 14 -32 9 -18 -3 -34 -7 -36 -8 -2 -2 9 -26 23 -55 25
-50 27 -80 5 -80 -6 0 -21 25 -35 56 -14 32 -32 62 -41 68 -12 9 -13 17 -5 39
11 27 26 36 33 17 2 -5 19 -7 39 -4 l37 6 -21 57 c-19 53 -18 99 1 87 5 -3 20
-33 33 -66 22 -56 26 -60 49 -55 14 4 26 8 28 10 2 2 -4 27 -12 56 -20 65 -20
89 -2 89 8 0 21 -24 31 -57z m1375 14 c0 -8 -6 -35 -14 -61 -14 -47 -14 -47
10 -57 14 -5 29 -9 34 -9 5 0 29 -9 54 -20 l46 -19 16 35 c30 64 57 58 31 -7
l-16 -40 30 -11 c17 -6 70 -30 119 -53 l87 -43 32 45 c23 32 36 42 43 35 8 -8
3 -24 -17 -57 -15 -26 -25 -48 -23 -49 1 -1 24 -16 50 -33 l46 -31 26 39 c15
21 33 39 41 39 22 0 19 -12 -14 -57 l-29 -40 61 -46 61 -47 17 29 c24 40 34
44 60 22 l23 -19 -43 -21 c-24 -13 -41 -23 -39 -25 1 -1 31 -28 65 -60 l62
-58 31 26 c18 14 40 26 51 26 32 0 21 -27 -21 -51 l-39 -22 27 -31 c15 -17 34
-42 42 -55 l16 -24 55 32 c31 17 61 31 67 31 25 0 10 -21 -37 -52 l-48 -32 25
-38 c23 -35 26 -37 42 -23 9 8 22 15 28 15 18 0 14 -41 -5 -62 -15 -17 -15
-22 -3 -41 12 -19 59 -98 88 -146 7 -13 16 -10 56 13 54 31 91 29 62 -3 -10
-11 -32 -25 -49 -32 -18 -7 -33 -13 -35 -15 -6 -4 60 -114 69 -114 5 0 29 10
54 22 32 16 48 19 56 11 7 -7 -26 -30 -115 -77 -70 -36 -131 -66 -136 -66 -27
0 -4 29 45 55 30 17 55 33 55 37 0 11 -62 108 -69 108 -4 0 -23 -11 -43 -25
-38 -26 -68 -32 -68 -15 0 5 18 21 39 34 50 32 57 44 38 64 -15 14 -15 13 -10
-6 10 -41 -21 -23 -62 35 -22 31 -61 81 -87 110 -27 29 -48 60 -48 68 0 26
-46 29 -76 6 -30 -24 -54 -27 -54 -8 0 7 34 33 75 58 41 24 74 46 74 49 -1 3
-21 22 -45 44 l-44 38 -46 -51 c-44 -49 -84 -67 -84 -37 0 7 24 35 53 62 l52
50 -68 64 c-95 88 -187 161 -197 155 -4 -3 -25 -34 -46 -70 -37 -63 -64 -83
-64 -47 0 10 20 45 44 78 l44 61 -48 35 -47 35 -27 -63 c-31 -71 -52 -95 -62
-71 -3 8 8 42 25 76 17 33 31 65 31 71 0 15 -208 113 -225 106 -8 -3 -15 -11
-15 -18 0 -28 -50 -118 -65 -118 -19 0 -20 28 -1 49 7 9 22 37 33 62 l20 45
-56 22 c-108 41 -107 41 -126 -20 -19 -56 -32 -78 -46 -78 -15 0 -10 34 11 78
28 57 26 69 -12 77 -100 20 -133 40 -88 52 15 4 18 11 14 30 -6 21 -3 24 12
21 13 -2 19 -12 19 -30 0 -33 1 -34 51 -42 39 -5 42 -4 47 22 9 44 26 82 37
82 5 0 10 -6 10 -13z m-1646 -222 c32 -74 55 -139 51 -146 -11 -17 -78 -5
-136 26 l-51 26 31 -45 c17 -24 31 -52 31 -60 0 -26 -34 -18 -52 12 -21 36
-54 65 -68 60 -6 -2 6 -27 26 -56 35 -49 36 -54 21 -69 -22 -23 -39 -7 -82 79
-39 78 -42 102 -20 154 l15 36 37 -23 c108 -65 194 -111 199 -106 3 3 -13 47
-35 99 -50 119 -58 148 -39 148 9 0 36 -50 72 -135z m735 71 c6 -7 12 -25 13
-39 1 -14 6 -25 11 -24 5 1 12 -4 14 -10 3 -8 -3 -13 -14 -13 -21 0 -108 -32
-167 -62 -123 -62 -251 -179 -299 -273 -27 -54 -48 -138 -57 -235 -7 -79 -13
-98 -31 -112 -27 -22 -48 -23 -78 -2 -80 56 -65 222 37 416 42 81 138 205 149
194 3 -3 -11 -34 -31 -69 -68 -122 -129 -362 -97 -381 7 -5 11 10 11 46 0 67
22 153 57 224 49 100 193 236 318 302 99 53 143 63 164 38z m1241 5 c0 -15
-51 -51 -71 -51 -26 0 -24 10 9 37 28 23 62 30 62 14z m-840 -46 c-7 -8 -16
-12 -21 -9 -13 8 -1 24 18 24 13 0 13 -3 3 -15z m-1513 -112 c9 -16 45 -71 80
-124 67 -102 73 -119 45 -119 -11 0 -29 22 -51 61 -37 67 -27 66 -98 6 l-22
-19 54 -47 c39 -34 50 -49 43 -58 -6 -7 -16 -13 -22 -13 -16 0 -61 47 -79 82
l-13 27 -30 -24 -29 -24 55 -55 c51 -53 53 -57 37 -73 -16 -16 -20 -13 -74 47
-109 120 -157 200 -120 200 7 0 21 -15 31 -32 11 -18 26 -41 34 -51 14 -16 16
-16 28 2 7 10 45 40 83 66 l69 47 -29 46 c-29 46 -38 82 -19 82 5 0 17 -12 27
-27z m2303 10 c0 -26 -58 -113 -74 -113 -30 0 -25 21 16 74 46 58 58 66 58 39z
m-1225 -48 l31 -40 -88 -32 c-87 -32 -124 -34 -113 -5 3 8 1 20 -5 27 -15 18
15 52 65 74 56 26 75 22 110 -24z m622 -2 c30 -20 50 -40 46 -46 -3 -5 -1 -7
5 -3 6 3 13 2 16 -3 8 -12 -50 -41 -82 -41 -13 0 -50 11 -81 24 -31 13 -65 28
-76 32 -19 7 -19 7 -1 12 23 5 46 26 46 41 0 16 33 31 55 24 11 -3 44 -21 72
-40z m-360 -72 c30 -38 2 -95 -43 -89 -40 5 -57 36 -39 71 7 15 11 27 7 28 -4
0 2 4 13 8 24 10 45 3 62 -18z m-827 -61 c-60 -119 -90 -220 -90 -302 0 -126
41 -178 141 -178 33 0 59 -4 59 -10 0 -5 -4 -10 -9 -10 -5 0 -21 -23 -35 -52
-31 -61 -34 -124 -10 -206 23 -78 15 -239 -15 -307 -40 -90 -115 -181 -311
-375 -222 -220 -240 -247 -248 -366 l-5 -73 -55 -17 c-181 -52 -272 -168 -260
-329 6 -72 22 -106 94 -201 42 -56 54 -79 54 -108 0 -33 -4 -38 -44 -56 -65
-31 -89 -62 -89 -112 0 -49 22 -99 63 -143 28 -29 28 -31 13 -68 -8 -20 -18
-37 -22 -37 -3 0 -36 47 -73 103 -242 376 -361 801 -329 1179 61 728 512 1417
1116 1704 50 24 91 43 93 44 1 0 -16 -36 -38 -80z m1835 -126 c97 -63 175
-123 249 -191 30 -28 63 -57 73 -65 29 -21 166 -178 156 -178 -19 0 -51 -78
-68 -160 -24 -124 -106 -282 -132 -256 -4 3 4 53 16 110 l23 103 -19 44 c-14
30 -17 52 -12 67 6 15 3 31 -9 52 -16 28 -16 32 2 77 29 76 31 114 6 146 -33
42 -90 36 -115 -14 -24 -45 -19 -77 19 -115 19 -19 30 -37 25 -40 -5 -3 -6
-16 -3 -30 4 -16 1 -26 -8 -29 -10 -4 -13 -16 -10 -35 2 -16 -4 -55 -14 -86
-18 -56 -17 -59 4 -143 23 -91 27 -121 15 -121 -15 0 -30 16 -66 68 -43 63
-74 142 -83 214 -4 29 -15 77 -26 106 -19 51 -20 52 -59 52 -45 0 -47 -5 -18
-36 l20 -22 -29 -59 c-38 -75 -47 -119 -32 -172 16 -61 68 -112 150 -150 66
-31 93 -50 51 -36 -32 10 -35 -15 -7 -44 20 -21 25 -35 21 -53 -5 -18 1 -32
24 -56 33 -34 40 -72 19 -116 -9 -21 -8 -29 5 -44 10 -11 15 -29 12 -47 -2
-17 -4 -70 -4 -119 l-1 -89 -166 164 c-189 186 -276 295 -299 372 -25 80 -31
222 -12 287 8 30 18 71 21 90 7 43 -15 126 -44 163 -30 38 -25 45 29 39 35 -3
55 0 75 13 92 60 81 221 -31 474 -8 18 142 -62 252 -135z m322 60 c7 -20 -81
-103 -109 -104 -26 0 -23 6 30 65 49 57 68 66 79 39z m-2994 -69 c32 -40 56
-44 83 -14 50 56 76 37 28 -21 -15 -17 -25 -32 -23 -34 2 -2 32 -18 67 -35 64
-32 71 -41 49 -60 -10 -8 -41 7 -133 66 -65 42 -121 78 -123 79 -6 5 9 54 17
54 4 0 20 -16 35 -35z m1656 -41 c2 -63 31 -132 77 -183 52 -57 90 -72 237
-92 120 -15 133 -28 153 -139 11 -66 12 -100 4 -152 -5 -37 -10 -74 -10 -82 0
-20 21 -20 46 0 10 8 14 13 8 10 -7 -4 -11 20 -10 73 1 64 5 83 21 101 47 52
87 46 106 -19 10 -32 8 -44 -8 -82 -11 -24 -35 -64 -54 -89 -19 -25 -40 -56
-47 -70 -24 -48 -72 -62 -72 -22 0 14 2 15 9 3 8 -12 12 -12 25 -2 22 19 20
48 -5 56 -11 4 -22 5 -23 3 -6 -7 -35 -97 -51 -152 -9 -32 -24 -71 -32 -85
-30 -48 -107 -122 -190 -182 -179 -130 -227 -131 -408 -9 -90 61 -168 131
-196 177 -12 19 -36 80 -54 135 l-31 98 -13 -35 c-12 -35 -25 -44 -36 -25 -3
6 1 10 9 10 9 0 16 7 16 16 0 8 -4 12 -10 9 -18 -11 -10 7 10 23 19 16 20 21
9 71 -16 76 -7 236 16 284 22 48 36 55 162 83 158 36 223 73 281 160 7 10 6 6
-3 -11 -22 -45 -49 -73 -97 -100 -24 -14 -38 -25 -33 -25 19 0 80 43 112 79
37 40 48 74 59 176 5 54 9 64 15 45 4 -14 7 -39 8 -56z m1431 31 c0 -18 -87
-85 -111 -85 -32 0 -21 17 38 59 61 44 73 49 73 26z m-1533 -37 c-3 -8 -6 -5
-6 6 -1 11 2 17 5 13 3 -3 4 -12 1 -19z m-1667 -103 c24 -25 49 -45 55 -45 6
0 19 13 28 30 21 34 64 64 54 36 -10 -26 2 -44 49 -71 25 -15 44 -30 42 -33
-10 -22 -64 -91 -72 -92 -5 0 -47 33 -93 73 -47 39 -97 81 -111 93 -17 14 -23
27 -19 37 10 25 19 21 67 -28z m3052 -92 c10 -9 18 -28 18 -42 0 -19 -3 -22
-12 -13 -7 7 -21 12 -32 12 -20 0 -20 0 0 -15 18 -14 18 -14 -4 -15 -27 0 -41
28 -21 41 8 5 22 7 32 5 15 -4 16 -2 6 10 -17 21 -34 17 -49 -11 -10 -20 -11
-28 -2 -37 17 -17 15 -33 -3 -18 -23 19 -19 66 7 84 28 20 37 20 60 -1z
m-3042 -31 c0 -10 -16 -45 -35 -77 -25 -41 -32 -62 -25 -69 7 -7 16 -7 28 1
18 12 18 16 7 46 -10 24 32 23 65 -3 22 -18 23 -21 8 -30 -9 -6 -26 -26 -38
-45 -25 -40 -44 -44 -75 -15 -23 21 -55 18 -55 -5 0 -7 27 -27 60 -44 33 -18
60 -37 60 -42 0 -23 -32 -19 -74 10 -24 17 -48 31 -53 31 -6 0 -55 -77 -71
-112 -2 -4 22 -20 52 -35 51 -25 74 -53 43 -53 -16 0 -227 108 -246 126 -29
27 16 27 62 0 24 -14 47 -26 50 -26 8 0 67 101 67 115 0 6 -25 23 -55 38 -30
15 -55 34 -55 42 0 19 29 19 50 0 26 -24 90 -47 90 -33 0 15 99 180 114 190
18 12 26 9 26 -10z m3054 -56 c-3 -8 -13 -17 -22 -21 -13 -5 -13 -2 3 15 21
24 26 25 19 6z m-53 -35 c15 -6 18 -10 8 -10 -9 -1 -25 7 -36 17 -10 9 -14 14
-8 10 6 -4 22 -12 36 -17z m24 -91 c3 -5 1 -10 -4 -10 -6 0 -11 5 -11 10 0 6
2 10 4 10 3 0 8 -4 11 -10z m328 -113 c124 -207 208 -406 257 -611 39 -159 49
-231 56 -406 18 -418 -115 -862 -351 -1165 l-44 -58 -11 27 c-14 38 -14 41 20
77 36 40 70 110 70 144 0 55 -25 91 -80 116 -84 38 -85 75 -2 182 63 83 86
149 80 231 -10 124 -95 223 -224 262 l-52 15 -7 265 c-5 192 -4 269 4 277 14
14 14 60 0 74 -13 13 6 83 22 83 4 0 16 12 26 26 16 25 16 27 0 39 -16 12 -15
15 14 38 24 18 30 30 25 43 -7 17 -9 17 -19 4 -7 -8 -21 -22 -32 -30 -15 -11
-14 -7 5 16 14 17 48 43 75 57 70 34 115 74 136 122 26 55 24 70 -16 154 -34
71 -42 101 -29 114 11 11 20 0 77 -96z m-2213 83 c11 -6 25 -20 31 -33 l12
-22 -25 23 c-31 28 -58 20 -57 -17 1 -17 3 -20 6 -8 2 9 8 17 11 17 16 0 63
-47 66 -65 2 -11 7 -39 11 -62 3 -23 13 -44 21 -47 21 -8 17 -24 -7 -31 -16
-5 -19 -12 -15 -31 10 -37 0 -29 -38 30 -75 117 -93 185 -66 237 12 22 23 24
50 9z m1897 -12 c4 -7 8 -26 9 -43 0 -16 7 -44 15 -62 11 -28 11 -43 -5 -110
-25 -108 -34 -128 -37 -83 l-2 35 -6 -35 c-6 -33 -7 -31 -35 54 -26 79 -28 92
-17 120 8 17 15 45 18 61 9 65 14 75 33 75 10 0 22 -6 27 -12z m-271 -91 c17
-91 58 -175 117 -237 36 -37 31 -37 -41 -1 -101 52 -149 122 -136 201 7 45 35
132 40 127 2 -2 11 -43 20 -90z m21 36 c-3 -10 -5 -4 -5 12 0 17 2 24 5 18 2
-7 2 -21 0 -30z m509 -59 c32 -84 -2 -148 -110 -209 -35 -19 -66 -35 -69 -35
-4 0 13 31 38 69 40 62 73 144 90 226 6 28 7 29 21 11 7 -11 21 -39 30 -62z
m-457 -104 c13 -25 31 -54 40 -65 16 -20 16 -20 -5 -2 -34 28 -74 111 -79 163
l-5 49 13 -50 c8 -27 24 -70 36 -95z m-3170 -161 c119 -46 118 -46 105 -58 -5
-6 -25 -4 -49 4 -21 8 -40 13 -41 12 -21 -34 -90 -255 -82 -263 2 -2 22 -9 43
-16 22 -7 38 -17 35 -23 -5 -11 -10 -11 -56 -1 l-32 7 -17 -75 c-9 -42 -21
-78 -26 -81 -18 -12 -19 22 -4 94 8 41 14 75 13 76 -2 1 -23 8 -47 16 -48 15
-73 46 -30 36 13 -2 38 -8 54 -12 30 -6 30 -6 49 62 10 37 30 96 44 131 13 35
23 64 21 66 -2 1 -26 11 -53 22 -47 19 -73 44 -45 44 7 0 60 -19 118 -41z
m2621 1 c28 -51 -13 -139 -57 -123 -57 20 -59 84 -5 145 17 20 45 10 62 -22z
m1600 30 c0 -6 -21 -20 -47 -32 -27 -13 -49 -23 -51 -24 -1 -1 11 -41 27 -90
16 -49 34 -108 41 -131 10 -40 12 -42 36 -33 32 12 74 13 74 1 0 -4 -20 -14
-45 -21 -51 -14 -52 -17 -31 -115 7 -33 11 -63 9 -67 -11 -20 -23 -3 -33 50
-22 108 -20 104 -49 99 -14 -3 -34 -9 -43 -12 -12 -5 -18 -2 -18 7 0 9 17 20
40 27 37 11 40 14 34 39 -9 36 -73 224 -79 230 -2 2 -24 -3 -49 -11 -29 -10
-48 -12 -52 -6 -8 14 -13 11 101 57 104 42 135 49 135 32z m-2646 -19 c22 -24
31 -83 17 -110 -14 -26 -57 -28 -83 -4 -24 22 -23 74 3 107 24 31 40 33 63 7z
m1803 -48 c-3 -10 -5 -4 -5 12 0 17 2 24 5 18 2 -7 2 -21 0 -30z m34 4 c-10
-9 -11 -8 -5 6 3 10 9 15 12 12 3 -3 0 -11 -7 -18z m8 -96 c26 -17 -1 -31 -58
-31 -61 0 -121 15 -121 31 0 12 161 12 179 0z m-43 -75 c-3 -11 -6 -29 -6 -38
0 -14 -8 -18 -35 -18 -32 0 -35 2 -35 29 0 16 -2 35 -5 43 -4 10 5 12 41 10
41 -4 45 -6 40 -26z m-1405 -186 c85 -38 160 -21 292 68 l77 53 0 -118 c0
-189 21 -231 133 -267 l67 -22 -50 -89 c-28 -49 -56 -92 -62 -96 -6 -4 -40
-10 -76 -14 -92 -10 -138 -26 -212 -74 -76 -50 -93 -49 -183 4 -64 38 -132 60
-219 70 l-58 6 -35 61 c-20 33 -42 75 -49 93 l-14 32 54 17 c120 38 149 97
142 292 l-3 111 76 -53 c42 -30 96 -63 120 -74z m1413 91 c3 -5 -3 -11 -14
-14 -11 -3 -20 -1 -20 3 0 5 -14 6 -31 3 -21 -3 -29 -1 -24 6 8 13 82 15 89 2z
m-14 -321 c0 -137 -3 -250 -7 -250 -5 0 -18 3 -30 6 l-23 6 0 244 0 244 30 0
30 0 0 -250z m1010 26 c0 -14 -29 -26 -68 -26 -21 0 -23 -4 -20 -52 l3 -52 44
0 c76 -2 56 -35 -21 -36 l-28 0 0 -85 0 -85 36 0 c28 0 35 -4 32 -17 -3 -14
-19 -16 -138 -14 -74 1 -138 5 -142 7 -23 15 12 24 88 24 77 0 84 2 84 20 0
18 -7 20 -65 20 l-64 0 -7 35 c-3 20 -4 49 0 65 4 22 2 30 -9 30 -8 0 -15 5
-15 10 0 6 33 10 80 10 52 0 80 4 80 11 0 7 -10 9 -26 5 -14 -4 -40 -4 -57 -1
-31 6 -32 8 -28 52 l3 45 -33 -4 c-19 -1 -36 1 -39 7 -7 13 40 22 125 24 39 1
88 6 110 10 61 13 75 12 75 -3z m-4422 -12 c40 -5 42 -7 42 -38 0 -54 -22 -71
-87 -67 -16 1 -23 7 -23 20 0 15 7 19 33 17 26 -1 33 3 35 22 3 20 -1 22 -42
22 l-46 0 0 -60 0 -60 61 0 62 0 -7 -31 c-3 -17 -6 -51 -6 -74 l0 -43 -105 2
c-114 1 -127 9 -75 46 19 14 30 30 30 46 0 23 -3 24 -61 24 -52 0 -60 2 -57
18 3 14 12 16 61 14 l57 -4 0 66 0 66 -55 0 c-43 0 -55 3 -55 16 0 13 13 14
98 9 53 -3 116 -8 140 -11z m2674 -71 c24 -9 44 -17 46 -18 5 -4 -143 -242
-197 -315 -72 -99 -129 -153 -239 -228 -50 -34 -112 -85 -139 -112 l-47 -49
-56 53 c-30 28 -98 81 -150 116 -153 105 -193 153 -366 434 -30 48 -54 90 -54
92 0 2 15 7 33 12 17 6 40 13 49 17 14 6 22 -2 38 -40 45 -106 156 -274 219
-333 20 -19 73 -54 118 -79 45 -25 101 -65 126 -88 l44 -43 34 35 c18 19 75
60 126 90 58 34 114 78 147 114 59 64 154 210 195 301 14 32 27 57 28 58 2 0
22 -7 45 -17z m-1605 -391 c156 -234 160 -241 142 -253 -16 -10 -56 -12 -46
-3 8 8 -140 244 -242 385 -41 58 -43 69 -7 69 16 0 52 -46 153 -198z m2253
180 c0 -3 -8 -15 -19 -26 -10 -12 -66 -91 -123 -176 -175 -261 -166 -250 -197
-231 -10 7 8 40 81 147 150 221 190 278 205 290 13 11 53 8 53 -4z m-1465 -23
c28 -5 87 -28 131 -51 l82 -41 -5 -38 c-5 -34 -3 -40 18 -48 35 -13 62 14 56
56 -5 30 -2 33 61 72 71 42 113 55 205 65 l57 6 -35 -49 c-54 -74 -100 -115
-189 -166 -45 -26 -94 -55 -111 -65 l-30 -19 -95 59 c-148 92 -166 105 -214
167 -26 32 -46 61 -46 65 0 7 21 5 115 -13z m-871 -214 c125 -189 147 -227
136 -240 -17 -21 -23 -19 -42 13 -24 40 -193 276 -251 349 -27 34 -56 65 -65
69 -13 5 -7 10 23 20 22 7 42 13 45 13 3 0 72 -101 154 -224z m2424 214 l32
-11 -44 -51 c-24 -29 -101 -131 -171 -227 -70 -96 -132 -175 -139 -175 -28 0
-10 42 70 161 82 121 217 314 220 314 0 0 15 -5 32 -11z m-3358 -34 c0 -13
-23 -15 -145 -15 -122 0 -145 2 -145 15 0 13 23 15 145 15 122 0 145 -2 145
-15z m2068 -94 c5 -33 -12 -46 -32 -26 -12 13 -14 21 -5 36 13 25 33 20 37
-10z m2163 -35 c-15 -62 -14 -96 3 -96 8 0 27 -5 42 -10 42 -16 16 -34 -30
-22 -34 10 -36 9 -42 -16 -6 -26 -50 -190 -60 -225 -4 -13 6 -22 40 -37 42
-18 61 -40 35 -40 -19 0 -223 70 -234 81 -5 6 -5 13 1 19 7 7 24 4 55 -9 24
-12 49 -21 54 -21 8 0 76 218 79 254 1 5 -19 17 -43 25 -51 18 -72 48 -26 37
85 -21 82 -22 90 30 10 69 23 100 37 86 8 -8 8 -23 -1 -56z m-4346 7 c12 -93
13 -94 43 -86 39 10 57 9 60 -2 2 -5 -14 -15 -35 -21 -35 -10 -38 -14 -36 -46
2 -29 58 -226 68 -236 2 -2 17 4 34 12 37 19 82 21 76 4 -5 -13 -198 -89 -223
-88 -27 0 -4 25 37 40 29 10 41 19 37 30 -41 128 -66 218 -66 238 0 20 -4 23
-22 18 -66 -18 -68 -18 -68 -2 0 9 15 19 41 26 37 10 40 14 35 38 -14 75 -16
103 -11 112 13 21 24 8 30 -37z m2607 0 c-11 -16 -33 -39 -48 -53 -16 -14 -9
-2 16 28 46 56 64 70 32 25z m-1822 14 c0 -2 -10 -12 -22 -23 l-23 -19 19 23
c18 21 26 27 26 19z m2678 -129 c16 -46 46 -155 67 -243 47 -207 128 -509 210
-786 111 -378 116 -432 45 -500 -68 -65 -245 -94 -555 -93 -241 1 -415 23
-592 74 -179 52 -358 139 -334 163 18 18 14 24 -45 63 -30 20 -78 64 -105 98
-43 54 -49 66 -49 108 l0 47 48 -52 c73 -80 114 -116 155 -138 68 -36 63 -15
-9 43 -39 31 -98 86 -132 123 -54 59 -62 73 -62 106 0 22 3 39 7 39 4 0 39
-31 78 -70 85 -84 270 -195 253 -151 -1 5 -58 54 -125 110 -127 105 -153 133
-153 163 0 30 14 27 75 -13 148 -98 301 -182 375 -208 54 -19 80 -24 80 -16 0
29 -42 128 -77 183 -61 94 -91 202 -55 202 4 0 16 -15 24 -34 9 -18 46 -72 83
-120 106 -139 163 -260 181 -383 8 -60 11 -65 32 -53 9 5 60 16 112 25 52 9
172 34 265 56 175 42 262 51 365 36 52 -7 54 -7 33 8 -12 9 -51 23 -87 32 -53
13 -78 14 -138 5 -40 -6 -73 -10 -73 -9 -29 53 -154 320 -184 392 -23 55 -47
111 -53 125 -15 30 -13 53 18 249 15 101 28 158 37 163 8 4 38 42 67 85 52 77
182 253 186 253 1 0 16 -37 32 -82z m-2405 -137 c89 -121 91 -126 118 -235 15
-62 32 -146 39 -187 l12 -75 -131 -260 c-72 -143 -136 -267 -143 -277 -12 -15
-21 -16 -78 -6 -46 7 -83 7 -129 -1 -64 -11 -138 -36 -130 -45 3 -2 40 1 82 7
94 12 176 2 375 -47 75 -18 176 -41 225 -50 48 -10 87 -22 87 -26 0 -5 4 -9 9
-9 5 0 19 32 31 72 42 138 88 210 234 366 41 44 86 99 101 122 18 29 30 39 37
32 23 -23 -4 -83 -83 -188 -72 -96 -127 -184 -115 -184 17 0 108 47 168 88 77
51 212 132 222 132 3 0 6 -11 6 -24 0 -26 -58 -84 -177 -179 -77 -61 -92 -77
-71 -77 23 0 138 81 205 143 l63 59 0 -50 0 -50 -102 -96 c-60 -56 -96 -96
-86 -96 18 0 94 54 151 108 l37 36 0 -46 c0 -45 -3 -49 -72 -112 -39 -36 -70
-67 -67 -69 2 -2 12 -9 23 -14 16 -9 12 -15 -40 -52 -128 -92 -264 -141 -469
-170 -276 -40 -523 -37 -744 9 -109 22 -150 43 -174 90 -36 69 -25 117 173
705 50 149 129 396 176 550 47 154 87 286 90 294 3 10 13 2 31 -25 14 -21 67
-95 116 -163z m1467 166 c0 -2 -10 -12 -22 -23 l-23 -19 19 23 c18 21 26 27
26 19z m-161 -149 c-2 -2 -24 -21 -49 -43 l-45 -40 40 43 c21 23 43 42 49 42
5 0 7 -1 5 -2z m-720 -59 c154 -41 281 -111 376 -205 66 -67 80 -90 65 -109
-17 -21 -24 -19 -74 18 -135 103 -370 199 -661 268 -76 18 -77 19 -25 14 30
-2 73 -7 95 -9 22 -3 11 1 -25 9 -93 22 -94 23 -10 19 52 -2 64 -1 40 5 l-35
8 35 5 c52 8 135 -1 219 -23z m1281 22 c0 -6 -12 -12 -27 -14 -16 -3 1 -3 37
-1 47 2 59 0 45 -7 -14 -6 -6 -7 30 -3 82 10 48 -2 -110 -39 -83 -20 -180 -45
-215 -57 -104 -34 -290 -127 -352 -176 -80 -62 -120 -77 -185 -69 -83 10 -74
25 16 25 62 0 81 3 81 14 0 25 72 107 132 152 117 86 305 158 453 173 44 5 83
9 88 10 4 0 7 -3 7 -8z m770 -326 c16 -19 -1 -65 -24 -65 -18 0 -23 15 -18 52
5 31 23 36 42 13z m-3380 -19 c0 -7 -10 -18 -22 -23 l-23 -11 28 -11 c24 -9
47 -44 47 -72 0 -21 -31 -6 -62 30 -32 39 -34 40 -65 26 l-32 -14 31 -58 c17
-32 32 -59 34 -61 1 -2 32 15 69 37 37 23 71 41 75 41 21 0 19 -22 -4 -44
l-26 -23 65 -77 c48 -56 72 -76 90 -76 46 0 34 -18 -48 -73 -45 -31 -97 -69
-115 -83 -26 -22 -35 -25 -45 -15 -9 10 -4 20 28 48 22 19 56 46 77 59 47 30
54 42 35 62 -15 14 -19 12 -51 -23 -19 -21 -33 -42 -30 -47 3 -4 0 -8 -6 -8
-16 0 -57 47 -97 112 l-35 57 -31 -20 c-18 -10 -38 -19 -44 -19 -25 0 -12 28
22 49 19 11 35 25 35 30 0 17 -63 111 -74 111 -6 0 -22 -7 -34 -16 -22 -15
-47 -11 -36 7 3 5 40 27 82 49 42 22 92 49 111 60 35 20 51 19 51 -4z m358
-19 c2 -26 -1 -37 -10 -37 -33 0 -50 44 -26 68 20 20 33 8 36 -31z m3447 -13
c124 -62 136 -71 112 -80 -9 -3 -32 4 -52 16 -20 12 -38 20 -40 18 -9 -9 -55
-99 -55 -108 0 -5 20 -21 45 -36 42 -24 60 -54 33 -54 -32 0 -248 135 -248
155 0 23 16 18 73 -20 54 -37 67 -41 67 -25 0 6 11 28 25 50 14 22 25 43 25
48 0 5 -17 16 -37 26 -59 27 -84 46 -78 56 9 15 12 14 130 -46z m-1912 -201
c5 -60 3 -73 -9 -73 -11 0 -14 14 -14 59 0 52 8 98 15 89 1 -2 5 -36 8 -75z
m1757 26 c0 -6 -14 -29 -32 -51 l-32 -41 23 -18 c34 -27 44 -24 80 26 32 44
53 55 66 35 4 -6 -21 -47 -56 -92 l-62 -81 34 -28 c25 -21 31 -31 23 -39 -9
-9 -43 12 -133 80 -116 87 -134 110 -90 110 18 0 111 -68 130 -94 8 -11 29 1
29 17 0 7 -18 22 -41 35 -22 13 -43 30 -46 38 -6 17 73 114 93 114 8 0 14 -5
14 -11z m-830 -191 c-17 -59 -32 -88 -46 -88 -22 0 -23 12 -4 100 11 47 19 92
20 100 1 8 10 -6 20 -32 15 -36 17 -54 10 -80z m-1929 -6 c18 -72 17 -82 -8
-82 -9 0 -25 -7 -35 -17 -17 -15 -18 -14 -18 45 0 56 26 140 39 127 2 -3 12
-36 22 -73z m1988 -84 c1 -23 -3 -28 -22 -28 -13 0 -28 5 -34 11 -11 11 -11
16 18 87 l11 27 13 -35 c8 -19 14 -47 14 -62z m-2070 -36 c-1 -49 5 -92 14
-114 17 -41 67 -73 98 -63 17 6 19 3 13 -22 -4 -15 -8 -30 -10 -32 -2 -2 -26
2 -54 9 -57 14 -77 37 -105 121 -15 45 -15 49 11 113 14 36 28 66 30 66 2 0 3
-35 3 -78z m-601 43 c2 -2 0 -15 -4 -29 l-7 -27 -28 27 c-16 15 -29 31 -29 36
0 6 59 0 68 -7z m712 -46 c0 -23 -22 -49 -40 -49 -24 0 -26 17 -3 42 18 20 43
24 43 7z m2010 -83 c-1 -55 -34 -112 -72 -124 -82 -25 -88 -25 -88 6 0 25 4
28 34 29 19 1 40 4 45 8 23 14 51 86 51 132 l1 48 14 -34 c8 -18 15 -47 15
-65z m639 52 c17 -23 31 -46 31 -50 0 -17 -26 -7 -57 24 -35 34 -41 53 -20 61
6 3 13 6 14 6 1 1 15 -18 32 -41z m-744 11 c-4 -5 2 -9 11 -9 13 0 15 -3 7
-11 -15 -15 -33 -3 -33 22 0 11 5 17 10 14 6 -4 8 -11 5 -16z m-2665 -38 c0
-5 -13 -19 -30 -31 -28 -20 -30 -20 -30 -3 0 11 5 24 12 31 14 14 48 16 48 3z
m577 -108 c16 -24 16 -24 -13 -17 -43 10 -47 18 -28 55 18 33 19 33 22 10 2
-14 11 -35 19 -48z m2253 11 c0 -14 -8 -24 -21 -27 -16 -4 -19 -2 -14 11 4 9
10 28 13 40 3 18 7 20 13 10 5 -7 9 -23 9 -34z m-1087 -135 c48 -45 34 -59
-20 -20 -41 30 -75 77 -88 121 -6 20 1 16 31 -20 21 -25 56 -61 77 -81z m-16
-376 c-1 -49 -3 -9 -3 87 0 96 2 136 3 88 2 -49 2 -127 0 -175z m-1028 -64
c-17 -41 -33 -76 -35 -78 -3 -4 -74 144 -74 154 0 7 135 11 138 4 1 -3 -12
-39 -29 -80z m2077 69 c3 -5 -5 -31 -17 -58 l-22 -50 -29 57 c-15 31 -28 57
-28 59 0 8 91 0 96 -8z"/>
<path d="M2518 4913 c-33 -8 -30 -45 7 -118 39 -78 45 -73 15 12 -23 66 -19
96 13 91 18 -2 22 -10 22 -40 0 -20 4 -40 8 -44 12 -12 27 17 27 53 0 45 -34
61 -92 46z"/>
<path d="M2481 4758 c12 -23 24 -68 27 -101 4 -43 7 -55 14 -43 13 22 -7 110
-33 153 -29 46 -34 41 -8 -9z"/>
<path d="M2601 4695 c-29 -116 -26 -126 9 -25 31 91 35 110 21 110 -5 0 -18
-38 -30 -85z"/>
<path d="M2670 4719 c0 -5 5 -7 10 -4 6 3 10 8 10 11 0 2 -4 4 -10 4 -5 0 -10
-5 -10 -11z"/>
<path d="M2642 4620 c0 -14 2 -19 5 -12 2 6 2 18 0 25 -3 6 -5 1 -5 -13z"/>
<path d="M2823 4618 c-19 -25 -24 -38 -15 -38 5 0 17 11 26 25 17 25 7 36 -11
13z"/>
<path d="M2860 4585 c-10 -12 -10 -18 0 -30 7 -8 17 -15 23 -15 5 0 2 9 -8 20
-16 18 -16 20 -2 20 10 0 17 5 17 10 0 15 -16 12 -30 -5z"/>
<path d="M2906 4574 c-4 -10 -1 -14 6 -12 15 5 23 28 10 28 -5 0 -13 -7 -16
-16z"/>
<path d="M2520 4540 c-23 -23 -25 -48 -5 -74 14 -18 15 -17 12 20 -2 36 0 39
23 39 18 0 26 -6 28 -22 3 -18 0 -22 -14 -16 -12 4 -15 3 -10 -5 11 -18 44
-14 54 6 16 30 24 74 12 67 -5 -3 -10 -18 -10 -32 l0 -25 -29 31 c-34 37 -35
37 -61 11z"/>
<path d="M2959 4555 c-1 -3 -2 -9 -3 -14 0 -5 -4 -13 -8 -17 -12 -11 -9 -21 6
-27 10 -4 13 -1 10 7 -3 7 2 19 10 26 9 7 13 16 10 21 -6 10 -23 12 -25 4z"/>
<path d="M2905 4530 c3 -5 11 -10 16 -10 6 0 7 5 4 10 -3 6 -11 10 -16 10 -6
0 -7 -4 -4 -10z"/>
<path d="M3000 4505 c-7 -9 -10 -18 -7 -22 8 -7 37 15 37 28 0 14 -16 11 -30
-6z"/>
<path d="M3042 4478 c-14 -14 -16 -28 -2 -28 5 0 14 9 20 20 12 22 1 27 -18 8z"/>
<path d="M3076 4443 c-4 -9 -2 -20 4 -25 5 -4 8 -5 5 -2 -2 4 0 15 6 25 6 11
6 19 0 19 -5 0 -12 -8 -15 -17z"/>
<path d="M3136 4391 c-4 -7 -5 -15 -2 -18 9 -9 19 4 14 18 -4 11 -6 11 -12 0z"/>
<path d="M2405 4360 c-7 -12 2 -12 30 0 19 8 19 9 -2 9 -12 1 -25 -3 -28 -9z"/>
<path d="M3155 4361 c-3 -5 -1 -12 5 -16 5 -3 10 1 10 9 0 18 -6 21 -15 7z"/>
<path d="M2419 4303 c15 -29 15 -29 -19 -43 -26 -11 -33 -10 -50 5 -11 10 -20
13 -20 8 0 -35 62 -39 105 -7 19 14 19 15 -4 37 l-23 22 11 -22z"/>
<path d="M2720 4299 c-12 -21 -25 -21 -77 -2 -10 3 -15 2 -10 -3 11 -12 106
-46 134 -48 12 0 21 -5 20 -10 -1 -5 3 -10 8 -12 6 -2 10 12 10 31 0 40 -5 43
-23 15 -10 -17 -16 -19 -33 -9 -16 8 -19 17 -15 35 8 30 1 31 -14 3z"/>
<path d="M2265 4300 c-3 -6 1 -7 9 -4 18 7 21 14 7 14 -6 0 -13 -4 -16 -10z"/>
<path d="M2197 4264 c-16 -9 -26 -18 -23 -21 3 -3 12 0 21 7 12 10 18 10 29 1
12 -10 13 -8 9 8 -3 12 -6 21 -7 21 0 -1 -14 -8 -29 -16z"/>
<path d="M2280 4270 c0 -5 5 -10 10 -10 6 0 10 5 10 10 0 6 -4 10 -10 10 -5 0
-10 -4 -10 -10z"/>
<path d="M2870 4238 c0 -19 2 -20 10 -8 13 19 13 30 0 30 -5 0 -10 -10 -10
-22z"/>
<path d="M2280 4220 c0 -23 4 -24 31 -10 27 15 24 30 -6 30 -18 0 -25 -5 -25
-20z"/>
<path d="M2837 4227 c-4 -11 9 -27 46 -54 29 -20 67 -48 85 -61 17 -14 32 -20
32 -15 0 5 -18 20 -40 33 -41 26 -47 39 -30 71 7 13 7 19 0 19 -5 0 -10 -3
-10 -7 0 -5 -4 -14 -9 -22 -11 -18 -49 2 -60 31 -6 18 -9 19 -14 5z"/>
<path d="M2110 4209 c-14 -12 -34 -27 -44 -35 -11 -7 -17 -17 -13 -21 4 -3 22
8 40 25 18 18 38 32 45 32 7 0 12 5 12 10 0 15 -12 12 -40 -11z"/>
<path d="M2224 4192 c10 -16 -13 -25 -29 -12 -9 7 -15 8 -15 2 0 -5 6 -15 14
-21 11 -9 19 -9 35 1 23 14 23 29 1 36 -7 3 -10 0 -6 -6z"/>
<path d="M3010 4180 c13 -23 20 -26 20 -6 0 8 -7 16 -15 20 -13 4 -14 2 -5
-14z"/>
<path d="M2950 4175 c0 -8 2 -15 4 -15 2 0 6 7 10 15 3 8 1 15 -4 15 -6 0 -10
-7 -10 -15z"/>
<path d="M2156 4156 c3 -9 11 -16 16 -16 13 0 5 23 -10 28 -7 2 -10 -2 -6 -12z"/>
<path d="M2990 4145 c0 -8 5 -15 10 -15 6 0 10 7 10 15 0 8 -4 15 -10 15 -5 0
-10 -7 -10 -15z"/>
<path d="M3050 4150 c0 -5 5 -10 10 -10 6 0 10 5 10 10 0 6 -4 10 -10 10 -5 0
-10 -4 -10 -10z"/>
<path d="M2015 4127 c-5 -13 -2 -24 10 -35 10 -9 15 -11 11 -4 -4 6 -3 12 3
12 5 0 14 -8 20 -17 5 -10 13 -15 17 -11 9 10 -15 38 -31 38 -8 0 -15 8 -18
18 -4 16 -4 16 -12 -1z"/>
<path d="M2097 4128 c4 -7 6 -22 4 -33 -2 -16 -1 -17 13 -6 12 10 13 18 5 32
-5 10 -14 19 -20 19 -6 0 -7 -6 -2 -12z"/>
<path d="M2136 4127 c3 -10 9 -15 12 -12 3 3 0 11 -7 18 -10 9 -11 8 -5 -6z"/>
<path d="M3031 4101 c-14 -25 18 -56 48 -46 22 7 31 55 11 55 -5 0 -10 -11
-10 -25 0 -28 -27 -35 -37 -10 -8 22 6 33 17 15 8 -12 10 -10 10 8 0 27 -25
29 -39 3z"/>
<path d="M1984 4075 c10 -8 24 -17 30 -20 8 -3 7 -7 -1 -11 -14 -6 -18 -24 -5
-24 4 0 14 5 22 10 12 7 11 13 -10 34 -13 15 -31 26 -39 26 -13 -1 -13 -3 3
-15z"/>
<path d="M3121 4054 c-13 -29 -6 -47 9 -24 9 14 14 50 7 50 -2 0 -9 -12 -16
-26z"/>
<path d="M3282 4028 c-15 -15 -16 -63 -2 -89 23 -42 90 -8 90 47 0 42 -60 70
-88 42z m58 -23 c10 -12 10 -21 1 -41 -14 -31 -45 -29 -49 4 -7 48 21 69 48
37z"/>
<path d="M3300 3980 c0 -11 4 -20 9 -20 11 0 22 26 14 34 -12 12 -23 5 -23
-14z"/>
<path d="M4171 4001 c-17 -11 -7 -41 22 -69 20 -19 26 -20 42 -8 18 13 18 14
-4 50 -23 37 -35 42 -60 27z"/>
<path d="M4255 3891 c-3 -6 10 -32 29 -57 42 -55 45 -52 11 12 -30 57 -31 58
-40 45z"/>
<path d="M1401 4508 c0 -31 1 -32 11 -10 6 12 16 22 22 22 12 0 -14 20 -26 20
-5 0 -8 -15 -7 -32z"/>
<path d="M2321 4633 c8 -10 19 -21 24 -25 6 -5 5 -8 -2 -8 -7 0 -13 -5 -13
-12 0 -8 6 -7 16 4 13 12 14 20 5 37 -7 11 -19 21 -28 21 -13 0 -14 -2 -2 -17z"/>
<path d="M2281 4631 c-12 -8 -13 -14 -3 -35 6 -14 16 -26 22 -26 13 0 13 17
-1 26 -6 3 -9 15 -6 25 3 11 4 19 4 19 -1 0 -8 -4 -16 -9z"/>
<path d="M2200 4585 c0 -8 6 -15 14 -15 8 0 16 -5 18 -12 2 -6 9 -8 16 -4 9 5
9 12 -1 26 -14 23 -47 27 -47 5z"/>
<path d="M2142 4561 c-12 -7 -12 -12 -1 -30 15 -23 25 -26 33 -12 3 5 -1 11
-9 15 -24 9 -18 28 8 21 17 -5 19 -4 7 4 -18 13 -21 13 -38 2z"/>
<path d="M2200 4544 c0 -8 5 -12 10 -9 6 4 8 11 5 16 -9 14 -15 11 -15 -7z"/>
<path d="M2075 4510 c-8 -12 12 -40 28 -40 7 0 7 4 -1 12 -18 18 -14 32 5 17
14 -12 16 -12 11 1 -6 19 -34 25 -43 10z"/>
<path d="M2032 4449 c2 -7 10 -15 17 -17 8 -3 12 1 9 9 -2 7 -10 15 -17 17 -8
3 -12 -1 -9 -9z"/>
<path d="M2007 4429 c7 -7 15 -10 18 -7 3 3 -2 9 -12 12 -14 6 -15 5 -6 -5z"/>
<path d="M1990 4412 c0 -12 19 -26 26 -19 2 2 -2 10 -11 17 -9 8 -15 8 -15 2z"/>
<path d="M1956 4374 c-9 -24 -8 -25 13 -12 11 7 17 16 15 20 -8 13 -21 9 -28
-8z"/>
<path d="M1917 4298 c-9 -31 -2 -33 11 -3 6 14 8 25 3 25 -5 0 -11 -10 -14
-22z"/>
<path d="M1751 4026 c-15 -17 -17 -42 -8 -78 8 -31 51 -48 70 -29 9 9 6 11
-12 9 -32 -4 -62 43 -45 69 13 21 45 24 52 4 3 -9 -1 -11 -17 -6 -14 4 -21 2
-21 -7 0 -23 18 -43 40 -44 16 -1 20 5 20 32 0 53 -50 85 -79 50z"/>
<path d="M2532 4369 c-12 -18 -11 -24 1 -37 23 -22 49 -8 45 25 -4 34 -29 41
-46 12z"/>
<path d="M2212 3855 c-48 -15 -92 -41 -92 -54 0 -5 23 -1 50 10 62 23 111 24
217 2 88 -18 112 -13 75 17 -46 37 -171 50 -250 25z"/>
<path d="M2730 3858 c-44 -13 -90 -45 -90 -65 0 -8 6 -12 13 -9 6 2 49 17 95
32 74 24 87 25 130 15 26 -7 58 -19 70 -27 34 -22 42 -6 10 21 -45 39 -153 55
-228 33z"/>
<path d="M2234 3787 c-17 -7 -42 -20 -55 -30 -16 -12 -10 -10 21 5 35 17 61
22 113 21 37 -1 75 -7 83 -14 12 -10 13 -9 9 4 -11 28 -111 36 -171 14z"/>
<path d="M2791 3796 c2 -2 24 -6 49 -10 31 -4 40 -3 30 4 -13 9 -89 15 -79 6z"/>
<path d="M2724 3758 c-29 -32 -24 -31 30 10 16 13 22 22 14 22 -8 0 -27 -14
-44 -32z"/>
<path d="M2235 3743 c-27 -8 -54 -19 -59 -24 -6 -5 -25 -9 -43 -9 -33 0 -33 0
-17 -25 9 -14 21 -25 28 -25 6 0 26 -14 45 -30 40 -35 83 -45 142 -32 l44 9
-63 1 c-40 1 -73 7 -88 17 -29 19 -30 26 -4 43 16 10 20 10 20 -1 0 -8 9 -22
19 -31 29 -26 71 -17 96 20 21 31 21 31 45 12 12 -10 25 -17 27 -15 9 10 -18
56 -47 80 -36 31 -70 33 -145 10z m85 -57 c0 -3 -4 -8 -10 -11 -5 -3 -10 -1
-10 4 0 6 5 11 10 11 6 0 10 -2 10 -4z"/>
<path d="M2815 3750 c-50 -7 -64 -13 -86 -40 -26 -31 -43 -70 -31 -70 3 0 18
12 33 26 l26 25 6 -31 c9 -43 47 -59 83 -35 14 9 29 26 31 36 5 19 7 19 24 3
27 -24 24 -33 -18 -51 -25 -10 -53 -13 -83 -9 -33 4 -40 3 -28 -5 30 -17 81
-19 114 -3 33 16 124 96 124 110 0 4 -5 3 -12 -4 -18 -18 -53 -14 -73 8 -19
22 -7 28 14 8 10 -11 11 -10 6 4 -4 9 -15 18 -26 21 -12 3 -17 1 -12 -6 4 -7
0 -8 -11 -4 -10 4 -20 7 -22 7 -3 0 -2 5 1 10 3 6 5 9 3 9 -2 -1 -30 -5 -63
-9z m5 -70 c0 -5 -5 -10 -11 -10 -5 0 -7 5 -4 10 3 6 8 10 11 10 2 0 4 -4 4
-10z"/>
<path d="M3124 3685 c-9 -22 16 -50 28 -33 11 15 6 -13 -8 -46 -5 -13 -4 -17
4 -13 15 10 35 75 28 92 -7 20 -45 19 -52 0z"/>
<path d="M2470 3371 c0 -6 10 -17 22 -25 17 -12 24 -13 29 -4 5 7 3 18 -3 25
-12 15 -48 18 -48 4z"/>
<path d="M2615 3370 c-3 -5 -16 -10 -28 -10 -16 0 -23 -6 -23 -20 0 -24 0 -24
36 -5 17 9 30 22 30 30 0 17 -6 19 -15 5z"/>
<path d="M2730 3260 c0 -6 -70 -11 -177 -12 l-178 -3 40 -19 c59 -29 234 -29
290 0 38 20 58 44 36 44 -6 0 -11 -4 -11 -10z"/>
<path d="M899 3994 c-12 -14 -9 -20 21 -45 38 -32 52 -35 68 -16 8 10 3 19
-21 38 -49 38 -54 40 -68 23z"/>
<path d="M3830 3597 c27 -15 36 -14 25 2 -3 6 -16 11 -28 11 -21 0 -21 -1 3
-13z"/>
<path d="M3842 3550 c0 -14 2 -19 5 -12 2 6 2 18 0 25 -3 6 -5 1 -5 -13z"/>
<path d="M3791 3544 c0 -11 3 -14 6 -6 3 7 2 16 -1 19 -3 4 -6 -2 -5 -13z"/>
<path d="M3832 3500 c0 -14 2 -19 5 -12 2 6 2 18 0 25 -3 6 -5 1 -5 -13z"/>
<path d="M3812 3460 c0 -14 2 -19 5 -12 2 6 2 18 0 25 -3 6 -5 1 -5 -13z"/>
<path d="M3831 3454 c0 -11 3 -14 6 -6 3 7 2 16 -1 19 -3 4 -6 -2 -5 -13z"/>
<path d="M3070 3315 c7 -9 15 -13 17 -11 7 7 -7 26 -19 26 -6 0 -6 -6 2 -15z"/>
<path d="M3034 3279 c-21 -24 -9 -54 22 -54 24 0 32 46 11 63 -11 9 -18 7 -33
-9z"/>
<path d="M2017 3293 c-11 -11 -8 -48 5 -61 18 -18 36 -15 43 8 11 35 -25 76
-48 53z m33 -33 c0 -5 -4 -10 -10 -10 -5 0 -10 5 -10 10 0 6 5 10 10 10 6 0
10 -4 10 -10z"/>
<path d="M4677 2663 c7 -45 3 -39 31 -47 21 -7 22 -4 22 38 0 44 -1 46 -29 46
-29 0 -30 -1 -24 -37z"/>
<path d="M4688 2552 c-38 -3 -38 -3 -38 -48 l0 -45 43 3 c41 3 42 4 45 42 4
47 -2 52 -50 48z"/>
<path d="M413 2505 c-4 -46 14 -46 19 0 2 20 0 35 -7 35 -5 0 -11 -16 -12 -35z"/>
<path d="M1858 1923 c7 -3 16 -2 19 1 4 3 -2 6 -13 5 -11 0 -14 -3 -6 -6z"/>
<path d="M1898 1913 c7 -3 16 -2 19 1 4 3 -2 6 -13 5 -11 0 -14 -3 -6 -6z"/>
<path d="M2100 1870 c8 -5 20 -10 25 -10 6 0 3 5 -5 10 -8 5 -19 10 -25 10 -5
0 -3 -5 5 -10z"/>
<path d="M2190 1876 c0 -2 7 -7 16 -10 8 -3 12 -2 9 4 -6 10 -25 14 -25 6z"/>
<path d="M2147 1849 c7 -7 15 -10 18 -7 3 3 -2 9 -12 12 -14 6 -15 5 -6 -5z"/>
<path d="M2230 1857 c0 -2 19 -17 43 -32 23 -16 37 -22 30 -14 -12 15 -73 53
-73 46z"/>
<path d="M2275 1773 c6 -5 35 -26 65 -47 41 -28 47 -30 23 -9 -29 26 -111 78
-88 56z"/>
<path d="M3218 1953 c7 -3 16 -2 19 1 4 3 -2 6 -13 5 -11 0 -14 -3 -6 -6z"/>
<path d="M3303 1943 c9 -2 23 -2 30 0 6 3 -1 5 -18 5 -16 0 -22 -2 -12 -5z"/>
<path d="M3258 1933 c7 -3 16 -2 19 1 4 3 -2 6 -13 5 -11 0 -14 -3 -6 -6z"/>
<path d="M676 1421 c-33 -15 -36 -18 -23 -30 9 -7 28 -33 42 -57 29 -50 42
-54 74 -21 l22 24 -33 51 c-18 28 -35 51 -38 51 -3 0 -22 -8 -44 -18z"/>
<path d="M120 4218 c1 -612 2 -680 16 -658 12 21 14 79 12 375 -1 193 -1 482
0 643 2 285 2 292 22 292 20 0 20 -7 20 -587 0 -322 3 -583 7 -579 5 4 10 267
13 584 l5 577 576 3 c497 2 578 4 589 17 11 13 -61 15 -624 15 l-636 0 0 -682z"/>
<path d="M3710 4891 c0 -5 7 -12 16 -15 9 -3 261 -6 560 -6 l544 0 0 -524 c0
-288 3 -531 6 -540 21 -54 24 28 24 527 -1 476 1 542 14 545 13 3 15 -68 18
-600 2 -375 7 -611 13 -623 17 -35 20 88 16 682 l-3 563 -604 0 c-348 0 -604
-4 -604 -9z"/>
<path d="M188 840 c-3 -460 0 -557 16 -539 2 2 5 242 7 533 3 413 1 530 -8
533 -10 4 -13 -111 -15 -527z"/>
<path d="M4843 1319 c-10 -10 -13 -124 -13 -503 0 -445 5 -535 25 -515 3 3 4
236 3 518 -2 410 -5 510 -15 500z"/>
</g>
</svg>
